<svg width="61" height="61" viewBox="0 0 61 61" fill="none" xmlns="http://www.w3.org/2000/svg">
<path d="M15.25 45.75C6.84115 37.3412 6.84115 23.6588 15.25 15.25C23.6588 6.84115 37.3412 6.84115 45.75 15.25C54.1588 23.6588 54.1588 37.3412 45.75 45.75C37.3412 54.1588 23.6588 54.1588 15.25 45.75Z" fill="#FC7677"/>
<path d="M17.9614 31.8562C17.6144 31.5092 17.4002 31.03 17.3999 30.5003C17.3999 29.4416 18.2583 28.5832 19.3167 28.5836L41.6833 28.5836C42.7417 28.5832 43.6008 29.4423 43.6001 30.5003C43.6001 31.5597 42.742 32.4177 41.683 32.4174L19.3163 32.4174C18.7877 32.4174 18.3085 32.2032 17.9614 31.8562Z" fill="white"/>
<path d="M29.1441 43.0395C28.7974 42.6929 28.5826 42.213 28.5829 41.684L28.5829 19.3173C28.5832 18.2583 29.4413 17.4002 30.5 17.4002C31.559 17.4006 32.4171 18.2586 32.4171 19.3173L32.4171 41.684C32.4174 42.743 31.559 43.6014 30.5003 43.6007C29.9707 43.6011 29.4908 43.3862 29.1441 43.0395Z" fill="white"/>
</svg>
